name analog
datacolumns 19
datarows 56
range 0.669 0.6965
endheader
time	ground_force_vx	ground_force_vy	ground_force_vz	ground_force_px	ground_force_py	ground_force_pz	l_ground_force_vx	l_ground_force_vy	l_ground_force_vz	l_ground_force_px	l_ground_force_py	l_ground_force_pz	ground_torque_x	ground_torque_y	ground_torque_z	l_ground_torque_x	l_ground_torque_y	l_ground_torque_z
0.669	-0.0	-0.0	-0.0	-89.12130737304688	161.34405517578125	-788.9324340820312	-43.55462265014648	-156.13523864746094	-1054.9285888671875	-0.0	-0.0	-0.0	-0.0	-0.0	-0.0	277625.65625	-42536.05859375	-15637.845703125
0.6695	-0.0	-0.0	-0.0	-79.30973815917969	158.1356658935547	-798.8892211914062	-29.84212684631348	-156.34707641601562	-1053.45947265625	-0.0	-0.0	-0.0	-0.0	-0.0	-0.0	277503.1875	-44941.91015625	-11493.4521484375
0.67	-0.0	-0.0	-0.0	-60.34608840942383	154.3033447265625	-800.09423828125	-33.49687576293945	-157.5834197998047	-1019.3849487304688	-0.0	-0.0	-0.0	-0.0	-0.0	-0.0	268318.9375	-42767.76953125	-11709.8466796875
0.6705	-0.0	-0.0	-0.0	-41.78948211669922	151.70120239257812	-793.5977783203125	-47.299129486083984	-157.21282958984375	-978.9570922851562	-0.0	-0.0	-0.0	-0.0	-0.0	-0.0	257826.140625	-38957.5703125	-15326.4853515625
0.671	-0.0	-0.0	-0.0	-34.36275100708008	150.0438995361328	-782.2967529296875	-59.18685150146485	-155.0228729248047	-949.9772338867188	-0.0	-0.0	-0.0	-0.0	-0.0	-0.0	250264.171875	-36504.37890625	-18615.34375
0.6715	-0.0	-0.0	-0.0	-39.6588134765625	150.5063934326172	-770.9996948242188	-64.20792388916016	-151.8424072265625	-934.8213500976562	-0.0	-0.0	-0.0	-0.0	-0.0	-0.0	246696.796875	-36459.28515625	-19769.44921875
0.672	-0.0	-0.0	-0.0	-48.740352630615234	151.66519165039062	-762.4466552734375	-61.124610900878906	-150.9417724609375	-931.9544067382812	-0.0	-0.0	-0.0	-0.0	-0.0	-0.0	246908.015625	-38161.484375	-18759.205078125
0.6725	-0.0	-0.0	-0.0	-56.200008392333984	152.2533416748047	-755.3781127929688	-54.34675216674805	-151.43617248535156	-940.88818359375	-0.0	-0.0	-0.0	-0.0	-0.0	-0.0	249647.578125	-41541.8828125	-16452.869140625
0.673	-0.0	-0.0	-0.0	-58.70051574707031	152.2706756591797	-755.7991943359375	-46.8425407409668	-151.6655731201172	-951.642578125	-0.0	-0.0	-0.0	-0.0	-0.0	-0.0	252863.0	-45312.21875	-13985.357421875
0.6735	-0.0	-0.0	-0.0	-56.2622299194336	151.7718963623047	-760.043212890625	-40.31399917602539	-152.07156372070312	-955.3467407226562	-0.0	-0.0	-0.0	-0.0	-0.0	-0.0	254527.28125	-47883.640625	-11732.236328125
0.674	-0.0	-0.0	-0.0	-45.88024520874024	152.07537841796875	-769.2188720703125	-37.17119598388672	-151.29641723632812	-951.6574096679688	-0.0	-0.0	-0.0	-0.0	-0.0	-0.0	253874.90625	-49444.5703125	-10530.5224609375
0.6745	-0.0	-0.0	-0.0	-32.484413146972656	150.8807373046875	-777.761962890625	-37.2398567199707	-148.85922241210938	-940.3510131835938	-0.0	-0.0	-0.0	-0.0	-0.0	-0.0	250935.15625	-50254.3515625	-10410.80078125
0.675	-0.0	-0.0	-0.0	-18.177642822265625	147.8524627685547	-784.2696533203125	-39.20846557617188	-144.5146484375	-922.6801147460938	-0.0	-0.0	-0.0	-0.0	-0.0	-0.0	246972.984375	-49775.88671875	-11241.66015625
0.6755	-0.0	-0.0	-0.0	-7.982702255249023	143.4153594970703	-783.3711547851562	-41.656349182128906	-140.681396484375	-903.1287841796876	-0.0	-0.0	-0.0	-0.0	-0.0	-0.0	241916.984375	-49472.0234375	-11735.318359375
0.676	-0.0	-0.0	-0.0	-3.479209899902344	137.64401245117188	-773.6934814453125	-42.65296173095703	-137.85739135742188	-882.5220947265625	-0.0	-0.0	-0.0	-0.0	-0.0	-0.0	236608.46875	-48928.375	-11960.6318359375
0.6765	-0.0	-0.0	-0.0	-5.61234188079834	131.48939514160156	-756.1126708984375	-42.36782836914063	-136.57888793945312	-862.5634155273438	-0.0	-0.0	-0.0	-0.0	-0.0	-0.0	230717.796875	-48452.32421875	-11580.8505859375
0.677	-0.0	-0.0	-0.0	-11.909663200378418	124.89671325683594	-730.6187133789062	-41.94575881958008	-135.59051513671875	-838.6145629882812	-0.0	-0.0	-0.0	-0.0	-0.0	-0.0	224556.984375	-47829.79296875	-10945.3564453125
0.6775	-0.0	-0.0	-0.0	-19.971349716186523	118.41027069091795	-701.593994140625	-41.23125457763672	-134.45892333984375	-815.4964599609375	-0.0	-0.0	-0.0	-0.0	-0.0	-0.0	218180.015625	-47214.4296875	-10233.4970703125
0.678	-0.0	-0.0	-0.0	-26.327423095703125	112.27742767333984	-672.7012329101562	-39.76724243164063	-131.77865600585938	-790.3695678710938	-0.0	-0.0	-0.0	-0.0	-0.0	-0.0	211571.515625	-46465.4140625	-9696.08984375
0.6785	-0.0	-0.0	-0.0	-30.810699462890625	106.9827880859375	-646.8550415039062	-38.28700637817383	-128.10801696777344	-766.072265625	-0.0	-0.0	-0.0	-0.0	-0.0	-0.0	204801.421875	-45646.26953125	-9302.8935546875
0.679	-0.0	-0.0	-0.0	-32.6640625	102.2559051513672	-621.8468017578125	-37.10066986083984	-123.07105255126952	-739.2667236328125	-0.0	-0.0	-0.0	-0.0	-0.0	-0.0	197943.90625	-44971.33984375	-9134.841796875
0.6795	-0.0	-0.0	-0.0	-32.902286529541016	97.264892578125	-598.459716796875	-35.80624008178711	-118.16441345214844	-713.0181884765625	-0.0	-0.0	-0.0	-0.0	-0.0	-0.0	191108.859375	-44184.796875	-8979.9248046875
0.68	-0.0	-0.0	-0.0	-32.16856002807617	93.07972717285156	-576.41943359375	-33.995975494384766	-113.12374877929688	-686.5360717773438	-0.0	-0.0	-0.0	-0.0	-0.0	-0.0	183769.875	-43610.9765625	-8685.1484375
0.6805	-0.0	-0.0	-0.0	-30.075761795043945	88.3602294921875	-555.0856323242188	-31.867027282714844	-108.94017028808594	-658.9549560546875	-0.0	-0.0	-0.0	-0.0	-0.0	-0.0	176631.875	-42942.171875	-8095.92919921875
0.681	-0.0	-0.0	-0.0	-28.770240783691406	84.6780014038086	-534.7633666992188	-29.31078338623047	-105.74093627929688	-633.1195678710938	-0.0	-0.0	-0.0	-0.0	-0.0	-0.0	169358.578125	-42230.4453125	-7240.98974609375
0.6815	-0.0	-0.0	-0.0	-26.74700355529785	80.79287719726562	-513.0593872070312	-25.907360076904297	-102.44080352783205	-608.4097900390625	-0.0	-0.0	-0.0	-0.0	-0.0	-0.0	162650.15625	-41779.03515625	-6204.994140625
0.682	-0.0	-0.0	-0.0	-25.433826446533203	77.28047180175781	-495.5289306640625	-22.25425338745117	-99.5786361694336	-584.9553833007812	-0.0	-0.0	-0.0	-0.0	-0.0	-0.0	156306.28125	-41498.4765625	-4884.427734375
0.6825	-0.0	-0.0	-0.0	-23.267940521240234	74.3233642578125	-475.95111083984375	-18.367305755615234	-96.00982666015624	-560.40478515625	-0.0	-0.0	-0.0	-0.0	-0.0	-0.0	149898.28125	-41488.04296875	-3647.10888671875
0.683	-0.0	-0.0	-0.0	-20.81623649597168	71.21993255615234	-458.6733093261719	-14.657615661621094	-91.77053833007812	-537.9046020507812	-0.0	-0.0	-0.0	-0.0	-0.0	-0.0	143442.578125	-41169.41015625	-2440.8583984375
0.6835	-0.0	-0.0	-0.0	-18.151308059692383	68.06390380859375	-441.4314880371094	-11.072898864746094	-87.51984405517578	-512.3211059570312	-0.0	-0.0	-0.0	-0.0	-0.0	-0.0	137107.578125	-40713.4765625	-1462.31005859375
0.684	-0.0	-0.0	-0.0	-14.808944702148438	65.16449737548828	-423.64837646484375	-7.722501754760742	-82.90709686279297	-488.9923095703125	-0.0	-0.0	-0.0	-0.0	-0.0	-0.0	130906.796875	-40404.30078125	-609.2134399414062
0.6845	-0.0	-0.0	-0.0	-11.781060218811035	63.355995178222656	-408.3177490234375	-5.134265899658203	-78.40300750732422	-464.3666687011719	-0.0	-0.0	-0.0	-0.0	-0.0	-0.0	124590.703125	-39685.625	16.667749404907227
0.685	-0.0	-0.0	-0.0	-8.396594047546387	61.348182678222656	-396.1437377929688	-3.073372364044189	-73.84683990478516	-442.8450012207031	-0.0	-0.0	-0.0	-0.0	-0.0	-0.0	118296.46875	-39303.0546875	717.3316040039062
0.6855	-0.0	-0.0	-0.0	-5.594631195068359	59.24611282348633	-379.98193359375	-0.7827169895172119	-69.7168197631836	-419.7411193847656	-0.0	-0.0	-0.0	-0.0	-0.0	-0.0	112619.59375	-38819.66015625	1259.0845947265625
0.686	-0.0	-0.0	-0.0	-2.592872142791748	56.81863784790039	-365.7327575683594	0.9027154445648192	-65.22842407226562	-395.1797790527344	-0.0	-0.0	-0.0	-0.0	-0.0	-0.0	106855.40625	-38359.7265625	1898.2296142578125
0.6865	-0.0	-0.0	-0.0	-0.3782219886779785	54.59052658081055	-353.2645874023437	3.1881237030029297	-60.96289443969727	-376.100830078125	-0.0	-0.0	-0.0	-0.0	-0.0	-0.0	101301.6171875	-38132.0546875	2555.3232421875
0.687	-0.0	-0.0	-0.0	1.6520211696624756	52.40867614746094	-340.9277648925781	5.457809448242188	-56.83292007446289	-356.3841552734375	-0.0	-0.0	-0.0	-0.0	-0.0	-0.0	96213.078125	-37802.828125	3247.312744140625
0.6875	-0.0	-0.0	-0.0	3.205317497253418	50.082218170166016	-328.0186767578125	7.497940063476562	-53.34836196899414	-337.9410400390625	-0.0	-0.0	-0.0	-0.0	-0.0	-0.0	91495.5078125	-37714.890625	3837.1083984375
0.6880000000000001	-0.0	-0.0	-0.0	4.580322742462158	48.106224060058594	-317.1202697753906	9.21998405456543	-49.73102188110352	-321.4105834960937	-0.0	-0.0	-0.0	-0.0	-0.0	-0.0	87225.2265625	-37525.31640625	4420.99169921875
0.6885	-0.0	-0.0	-0.0	6.253401756286621	45.7805061340332	-306.5601806640625	10.9940185546875	-46.63080978393555	-305.7845764160156	-0.0	-0.0	-0.0	-0.0	-0.0	-0.0	83396.0703125	-37397.15625	4972.373046875
0.6890000000000001	-0.0	-0.0	-0.0	7.591304302215576	43.695762634277344	-296.49127197265625	12.841541290283203	-43.01005172729492	-290.7235107421875	-0.0	-0.0	-0.0	-0.0	-0.0	-0.0	79328.9921875	-37096.17578125	5411.45703125
0.6895	-0.0	-0.0	-0.0	8.4599027633667	42.522064208984375	-288.9881591796875	14.217639923095703	-39.31595230102539	-277.16668701171875	-0.0	-0.0	-0.0	-0.0	-0.0	-0.0	75577.640625	-36892.984375	5833.794921875
0.6900000000000001	-0.0	-0.0	-0.0	9.039379119873049	41.04408645629883	-281.6591796875	15.885839462280272	-35.87176513671875	-263.3123474121094	-0.0	-0.0	-0.0	-0.0	-0.0	-0.0	72274.7265625	-36692.12890625	6254.03955078125
0.6905	-0.0	-0.0	-0.0	10.333468437194824	39.78925704956055	-275.7151794433594	17.430946350097656	-32.72246551513672	-251.04000854492188	-0.0	-0.0	-0.0	-0.0	-0.0	-0.0	69754.0234375	-36294.7890625	6678.49462890625
0.6910000000000001	-0.0	-0.0	-0.0	11.210872650146484	38.4077033996582	-268.23992919921875	18.36313247680664	-30.264537811279297	-242.5425567626953	-0.0	-0.0	-0.0	-0.0	-0.0	-0.0	67433.640625	-36439.52734375	6924.41943359375
0.6915	-0.0	-0.0	-0.0	12.645525932312012	37.45711898803711	-263.560791015625	19.124624252319336	-28.851518630981445	-237.3057861328125	-0.0	-0.0	-0.0	-0.0	-0.0	-0.0	65630.1875	-36088.23828125	7095.978515625
0.6920000000000001	-0.0	-0.0	-0.0	13.81287670135498	35.860595703125	-255.791259765625	19.31684112548828	-27.453279495239254	-231.6329040527344	-0.0	-0.0	-0.0	-0.0	-0.0	-0.0	64167.921875	-36011.1328125	7254.708984375
0.6925	-0.0	-0.0	-0.0	15.313716888427734	35.17717742919922	-251.90670776367188	19.39068603515625	-25.856298446655277	-227.2396240234375	-0.0	-0.0	-0.0	-0.0	-0.0	-0.0	63410.92578125	-36095.5	7425.67236328125
0.6930000000000001	-0.0	-0.0	-0.0	16.250940322875977	34.34587478637695	-248.93394470214844	19.079933166503903	-25.252918243408203	-223.6605529785156	-0.0	-0.0	-0.0	-0.0	-0.0	-0.0	62489.27734375	-36026.296875	7410.7919921875
0.6935	-0.0	-0.0	-0.0	17.871212005615234	33.77408981323242	-247.0205535888672	18.92466354370117	-24.58256721496582	-222.0298309326172	-0.0	-0.0	-0.0	-0.0	-0.0	-0.0	61978.0390625	-36011.03125	7368.79052734375
0.6940000000000001	-0.0	-0.0	-0.0	19.00183868408203	32.667449951171875	-242.4626007080078	18.46640396118164	-23.970748901367188	-219.0952911376953	-0.0	-0.0	-0.0	-0.0	-0.0	-0.0	61375.61328125	-35866.93359375	7338.931640625
0.6945	-0.0	-0.0	-0.0	20.25668716430664	33.09621810913086	-241.3127899169922	18.067981719970703	-23.82436180114746	-217.6992950439453	-0.0	-0.0	-0.0	-0.0	-0.0	-0.0	61328.17578125	-36219.203125	7536.61279296875
0.6950000000000001	-0.0	-0.0	-0.0	20.78604888916016	32.83174514770508	-239.7868194580078	17.993852615356445	-24.015270233154297	-220.31466674804688	-0.0	-0.0	-0.0	-0.0	-0.0	-0.0	61856.53515625	-36499.9140625	7553.78173828125
0.6955	-0.0	-0.0	-0.0	22.195629119873047	33.42928695678711	-241.8717041015625	18.148536682128903	-25.590579986572266	-224.009033203125	-0.0	-0.0	-0.0	-0.0	-0.0	-0.0	62744.6015625	-37235.7265625	7911.451171875
0.6960000000000001	-0.0	-0.0	-0.0	23.07704162597656	33.71974563598633	-241.073486328125	18.185710906982425	-26.81275749206543	-228.49156188964844	-0.0	-0.0	-0.0	-0.0	-0.0	-0.0	64052.64453125	-38497.24609375	8202.970703125
0.6965	-0.0	-0.0	-0.0	23.98345947265625	34.14192199707031	-241.5750732421875	19.20425033569336	-28.78415298461914	-233.1427764892578	-0.0	-0.0	-0.0	-0.0	-0.0	-0.0	65621.3125	-39124.7109375	8687.29296875
